<svg width="153" height="40" viewBox="0 0 153 40" fill="none" xmlns="http://www.w3.org/2000/svg">
<path d="M12.6918 26.3777C11.6666 23.9867 11.1456 21.6008 11.1456 19.284C11.1456 17.7563 11.3715 16.1528 11.8184 14.5155C12.2804 12.8226 12.8318 11.2072 13.459 9.71327C14.0897 8.2092 14.1267 8.64086 14.6764 7.43525C15.0407 6.636 15.216 6.40331 15.6628 5.53156C15.931 5.00716 16.0237 4.42037 15.823 3.869C15.6224 3.31762 15.1823 2.87584 14.6141 2.65833L8.82711 0.715858C7.86262 0.346587 6.74131 0.715859 6.2186 1.57581C5.28615 3.11022 4.39922 4.64295 3.58649 6.13353C2.66247 7.82644 2.92551 7.6005 2.24429 9.23102C1.55465 10.8835 1.00327 12.5443 0.607022 14.1698C0.204027 15.829 0 17.5034 0 19.1474C0 20.8875 0.220889 22.6496 0.657607 24.3846C1.08589 26.0877 1.53779 27.7772 2.23924 29.7231C2.84289 31.4042 3.50218 32.6418 4.23229 34.3196C5.01805 36.1271 5.68408 37.2653 6.55078 38.5232C6.9504 39.1032 7.62318 39.427 8.31283 39.427C8.62308 39.427 8.93671 39.3612 9.23179 39.2246L15.3627 36.493C15.8787 36.2536 16.2614 35.8338 16.4419 35.311C16.6189 34.7951 16.57 34.2218 16.307 33.7395C14.9041 31.1732 13.6883 28.6979 12.6935 26.3794L12.6918 26.3777Z" fill="white"/>
<path d="M31.5055 14.3974H37.8335V29.7134H31.5055V14.3974ZM34.6695 13.1654C33.5308 13.1654 32.6068 12.8667 31.8975 12.2694C31.2068 11.6534 30.8615 10.8787 30.8615 9.94538C30.8615 9.01204 31.2068 8.24671 31.8975 7.64938C32.6068 7.03338 33.5308 6.72538 34.6695 6.72538C35.8268 6.72538 36.7508 7.01471 37.4415 7.59338C38.1321 8.17204 38.4775 8.91871 38.4775 9.83338C38.4775 10.804 38.1321 11.6067 37.4415 12.2414C36.7508 12.8574 35.8268 13.1654 34.6695 13.1654ZM51.2783 14.1174C53.1636 14.1174 54.6756 14.6867 55.8143 15.8254C56.9716 16.964 57.5503 18.6814 57.5503 20.9774V29.7134H51.2223V22.0694C51.2223 20.3147 50.5969 19.4374 49.3463 19.4374C48.6369 19.4374 48.0583 19.6894 47.6103 20.1934C47.1809 20.6787 46.9663 21.4534 46.9663 22.5174V29.7134H40.6383V14.3974H46.6583V15.9094C47.2556 15.312 47.9463 14.864 48.7303 14.5654C49.5143 14.2667 50.3636 14.1174 51.2783 14.1174ZM70.9384 14.1174C72.8238 14.1174 74.3358 14.6867 75.4744 15.8254C76.6318 16.964 77.2104 18.6814 77.2104 20.9774V29.7134H70.8824V22.0694C70.8824 20.3147 70.2571 19.4374 69.0064 19.4374C68.2971 19.4374 67.7184 19.6894 67.2704 20.1934C66.8411 20.6787 66.6264 21.4534 66.6264 22.5174V29.7134H60.2984V14.3974H66.3184V15.9094C66.9158 15.312 67.6064 14.864 68.3904 14.5654C69.1744 14.2667 70.0238 14.1174 70.9384 14.1174ZM88.884 25.3174C89.556 25.3174 90.116 25.2334 90.564 25.0654C91.0307 24.8974 91.5347 24.608 92.076 24.1974L95.38 27.5294C93.8494 29.172 91.6187 29.9934 88.688 29.9934C86.84 29.9934 85.216 29.6574 83.816 28.9854C82.416 28.2947 81.3334 27.3427 80.568 26.1294C79.8027 24.916 79.42 23.5534 79.42 22.0414C79.42 20.5107 79.8027 19.148 80.568 17.9534C81.3334 16.74 82.3787 15.7974 83.704 15.1254C85.048 14.4534 86.5507 14.1174 88.212 14.1174C89.724 14.1174 91.1147 14.4254 92.384 15.0414C93.6534 15.6387 94.6614 16.5347 95.408 17.7294C96.1547 18.9054 96.528 20.3147 96.528 21.9574L86.056 23.9734C86.5227 24.8694 87.4654 25.3174 88.884 25.3174ZM88.24 18.4294C87.512 18.4294 86.9147 18.644 86.448 19.0734C86 19.5027 85.7294 20.1374 85.636 20.9774L90.536 20.0254C90.368 19.54 90.0787 19.1574 89.668 18.8774C89.276 18.5787 88.8 18.4294 88.24 18.4294ZM104.545 16.0494C105.665 14.7614 107.317 14.1174 109.501 14.1174V19.7174C108.997 19.6427 108.53 19.6054 108.101 19.6054C105.936 19.6054 104.853 20.7067 104.853 22.9094V29.7134H98.525V14.3974H104.545V16.0494Z" fill="#B76EF9"/>
<path d="M127.308 26.3789C128.333 23.9879 128.854 21.602 128.854 19.2852C128.854 17.7575 128.628 16.154 128.181 14.5167C127.719 12.8238 127.168 11.2084 126.541 9.71449C125.91 8.21042 125.873 8.64209 125.323 7.43648C124.959 6.63723 124.784 6.40454 124.337 5.53278C124.069 5.00839 123.976 4.4216 124.177 3.87022C124.377 3.31884 124.817 2.87707 125.386 2.65955L131.173 0.717079C132.137 0.347807 133.258 0.71708 133.781 1.57703C134.714 3.11144 135.601 4.64417 136.413 6.13475C137.337 7.82767 137.074 7.60172 137.755 9.23225C138.445 10.8847 138.996 12.5456 139.393 14.171C139.796 15.8286 140 17.5029 140 19.1469C140 20.8871 139.779 22.6491 139.342 24.3842C138.914 26.0872 138.462 27.7768 137.761 29.7226C137.157 31.4037 136.498 32.6414 135.767 34.3191C134.982 36.1267 134.316 37.2649 133.449 38.5227C133.049 39.1028 132.377 39.4265 131.687 39.4265C131.377 39.4265 131.063 39.3608 130.768 39.2242L124.637 36.4926C124.121 36.2531 123.738 35.8333 123.558 35.3106C123.381 34.7946 123.43 34.2213 123.693 33.7391C125.096 31.1727 126.311 28.6974 127.306 26.3789H127.308Z" fill="white"/>
<path d="M146.507 0.325242C147.563 0.325242 148.517 0.570575 149.371 1.06124C150.235 1.55191 150.912 2.22924 151.403 3.09324C151.893 3.94658 152.139 4.89591 152.139 5.94124C152.139 6.98658 151.888 7.94658 151.387 8.82124C150.885 9.68524 150.203 10.3679 149.339 10.8692C148.475 11.3706 147.52 11.6212 146.475 11.6212C145.429 11.6212 144.475 11.3706 143.611 10.8692C142.757 10.3679 142.08 9.68524 141.579 8.82124C141.088 7.95724 140.843 7.00791 140.843 5.97324C140.843 4.93858 141.088 3.98924 141.579 3.12524C142.08 2.26124 142.763 1.57858 143.627 1.07724C144.491 0.575909 145.451 0.325242 146.507 0.325242ZM146.475 10.5812C147.328 10.5812 148.101 10.3786 148.795 9.97324C149.499 9.55724 150.048 8.99724 150.443 8.29324C150.848 7.57858 151.051 6.79458 151.051 5.94124C151.051 5.07724 150.853 4.29858 150.459 3.60524C150.075 2.91191 149.536 2.36791 148.843 1.97324C148.149 1.56791 147.371 1.36524 146.507 1.36524C145.643 1.36524 144.864 1.56791 144.171 1.97324C143.477 2.37858 142.933 2.93324 142.539 3.63724C142.144 4.34124 141.947 5.11991 141.947 5.97324C141.947 6.82658 142.144 7.60524 142.539 8.30924C142.933 9.01324 143.472 9.56791 144.155 9.97324C144.848 10.3786 145.621 10.5812 146.475 10.5812ZM149.451 5.07724C149.451 5.52524 149.349 5.91458 149.147 6.24524C148.955 6.56524 148.667 6.81591 148.283 6.99724L149.643 9.07724H147.979L146.811 7.28524H146.747H145.707V9.07724H144.043V2.86924H146.747C147.589 2.86924 148.251 3.07191 148.731 3.47724C149.211 3.87191 149.451 4.40524 149.451 5.07724ZM146.635 6.03724C147.008 6.03724 147.296 5.95724 147.499 5.79724C147.712 5.62658 147.819 5.38658 147.819 5.07724C147.819 4.76791 147.712 4.52791 147.499 4.35724C147.296 4.18658 147.008 4.10124 146.635 4.10124H145.691V6.03724H146.635Z" fill="#B76EF9"/>
</svg>
