<svg xmlns="http://www.w3.org/2000/svg" width="1920" height="135" viewBox="0 0 1920 135">
  <g id="dddd" transform="translate(0 78.928)">
    <path id="Path_4" data-name="Path 4" d="M1115-78.3c-43.4,1.9-78.9,5.9-143.5,16.3C880.2-47.4,829.3-43,749.6-43c-76,0-153.9-5.6-247.1-17.9C467.1-65.6,433.6-67,385-65.8,292.3-63.6,165.5-48.3,26-22.5,12.5-20,1.2-18,.8-18,.3-18,0-14,0-9V0H1920V-76h-3.4c-1.9,0-27.2,2.5-56.3,5.5C1737.2-57.7,1693-53.4,1650-50.1c-117.4,9.1-202.5,9.2-265.1.5-6.3-.8-22.9-3.7-36.9-6.4C1254.2-74.1,1179.8-81.2,1115-78.3Z" fill="#11a195"/>
    <path id="Path_5" data-name="Path 5" d="M0,0H1920V71H0Z" transform="translate(0 -14.928)" fill="#11a195"/>
  </g>
</svg>
