<svg xmlns="http://www.w3.org/2000/svg" width="1920" height="238.802" viewBox="0 0 1920 238.802">
  <g id="shape4" transform="translate(0 249)">
    <path id="Path_2" data-name="Path 2" d="M0-99.1v56.9l15.8-9.6C115.2-112.2,215.1-144,290-139.1c34.4,2.2,52.4,7.3,88.5,25.1,13.2,6.5,26.5,12.9,29.5,14.3,3,1.3,7.5,3.4,10,4.5,30.9,14,92.1,36,121.5,43.7,2.8.7,10.6,2.8,17.5,4.8,39.3,10.9,93,21.9,132,27.2C778.4-7.6,852.8-7.1,918-18.1a410.376,410.376,0,0,0,66.7-17c33.2-11.4,64.8-22.1,74.1-25,5-1.6,13.6-4.3,19-6,66.5-20.8,132.5-36.1,193.2-44.8,43-6.2,62.5-7.6,107.5-7.6,45.4,0,62,1.2,95,6.6,42.6,7,64.3,13.2,116,33.4,16.5,6.5,34.1,13.3,39,15.2,5,1.8,9.9,3.7,11,4.2,5.9,2.5,8.7,3.6,16,6.3,16.1,6,37.3,12.9,49.5,16.3,70.9,19.6,127,10.5,198.8-32.3l16.2-9.7V-156H0Z" fill="#e9f063"/>
    <path id="Path_3" data-name="Path 3" d="M0,0H1920V103H0Z" transform="translate(0 -249)" fill="#e9f063"/>
  </g>
</svg>
