<svg xmlns="http://www.w3.org/2000/svg" width="1920" height="146.822" viewBox="0 0 1920 146.822">
  <g id="Untitled-1" transform="translate(0 149)">
    <path id="Path_6" data-name="Path 6" d="M1742-146.9C1562.5-144.6,17.2-126,7.3-126H0V-14.2l6.3.6C23.2-11.9,135.5-6.4,202.5-4c75.1,2.8,197,2.3,239-1,21-1.7,94.8-5.9,129.5-7.5,109.1-4.9,228.4-4.9,320,0,118.2,6.4,165.1,7.8,226,6.4,60.5-1.3,100.3-3.8,184.5-11.4,48.6-4.4,61.6-5.2,102.5-6.6,38.2-1.3,205.9-.7,259,1,17.9.6,47.6,1.5,66,2.1s53.5,1.7,78,2.5,55.5,1.7,69,2,28.9.8,34.3,1.1l9.7.6V-149l-16.7.1C1894-148.8,1821.5-147.9,1742-146.9Z" fill="#11a195"/>
  </g>
</svg>
